<svg xmlns="http://www.w3.org/2000/svg" viewBox="0 0 64 64" role="img" aria-label="NS3-Aquasim">
  <defs>
    <linearGradient id="bg" x1="12%" y1="8%" x2="88%" y2="100%">
      <stop offset="0%" stop-color="#0a1a34"/>
      <stop offset="48%" stop-color="#07101e"/>
      <stop offset="100%" stop-color="#03060c"/>
    </linearGradient>
    <linearGradient id="path" x1="22%" y1="40%" x2="86%" y2="58%">
      <stop offset="0%" stop-color="#38bdf8"/>
      <stop offset="100%" stop-color="#93c5fd"/>
    </linearGradient>
  </defs>

  <rect width="64" height="64" rx="14" fill="url(#bg)"/>
  <rect x="1" y="1" width="62" height="62" rx="13" fill="none" stroke="#38bdf8" stroke-opacity="0.34" stroke-width="1.5"/>

  <circle cx="22" cy="33" r="20" fill="none" stroke="#38bdf8" stroke-opacity="0.12" stroke-width="1.6"/>
  <circle cx="22" cy="33" r="14" fill="none" stroke="#38bdf8" stroke-opacity="0.26" stroke-width="1.7"/>
  <circle cx="22" cy="33" r="8.5" fill="none" stroke="#7dd3fc" stroke-opacity="0.55" stroke-width="1.8"/>

  <path d="M27.2 31.2 C34 24.5 40.5 24.8 47.2 27.4" fill="none" stroke="url(#path)" stroke-width="2.2" stroke-linecap="round"/>
  <path d="M27.4 35.4 C36 42.2 42.2 40.6 47.4 36.6" fill="none" stroke="#22c55e" stroke-opacity="0.82" stroke-width="2.1" stroke-linecap="round"/>
  <circle cx="37.2" cy="27.4" r="1.7" fill="#e0f2fe"/>

  <circle cx="22" cy="33" r="6.1" fill="#1d4ed8"/>
  <circle cx="22" cy="33" r="5.1" fill="#60a5fa"/>
  <circle cx="20.6" cy="31.5" r="1.7" fill="#e0f2fe" fill-opacity="0.9"/>

  <circle cx="48" cy="26.2" r="5.1" fill="#166534"/>
  <circle cx="48" cy="26.2" r="4.2" fill="#22c55e"/>
  <circle cx="46.9" cy="25.1" r="1.25" fill="#dcfce7"/>

  <circle cx="48.2" cy="39.6" r="5.1" fill="#9a3412"/>
  <circle cx="48.2" cy="39.6" r="4.2" fill="#fb923c"/>
  <circle cx="47.1" cy="38.5" r="1.25" fill="#ffedd5"/>
</svg>
